<svg xmlns="http://www.w3.org/2000/svg" xmlns:xlink="http://www.w3.org/1999/xlink" viewBox="0 0 1289 423"><linearGradient id="A" gradientUnits="userSpaceOnUse" x1="163.135" y1="189.441" x2="186.825" y2="189.441"><stop offset="0" stop-color="#1e72bf"/><stop offset="1" stop-color="#277dad"/></linearGradient><path d="M186.8 193.2h-2.2l-8.3.3-13.2-8.1h10.5l11.5 6.8z" fill="url(#A)"/><linearGradient id="B" gradientUnits="userSpaceOnUse" x1="178.741" y1="189.228" x2="190.732" y2="189.228"><stop offset="0" stop-color="#1e72bf"/><stop offset="1" stop-color="#277dad"/></linearGradient><path d="M178.7 188.7l10-.1 2 1.2h-10.1z" fill="url(#B)"/><linearGradient id="C" gradientUnits="userSpaceOnUse" x1="183.026" y1="186.465" x2="196.775" y2="186.465"><stop offset="0" stop-color="#1e72bf"/><stop offset="1" stop-color="#277dad"/></linearGradient><path d="M196.8 187.7l-9.4.2-4.3-2.6 9.7-.1c.2 0 .4.1.6.2l3.1 1.9s.2.1.3.4z" fill="url(#C)"/><linearGradient id="D" gradientUnits="userSpaceOnUse" x1="110.084" y1="175.927" x2="153.916" y2="175.927"><stop offset="0" stop-color="#59549b"/><stop offset="1" stop-color="#1b6d9b"/></linearGradient><path d="M153.9 203l-5.2 10-38.6-74.3h9.1c.6 0 1.2.4 1.5.9l33.2 63.4z" fill="url(#D)"/><linearGradient id="E" gradientUnits="userSpaceOnUse" x1="182.704" y1="192.271" x2="196.854" y2="192.271"><stop offset="0" stop-color="#59549b"/><stop offset="1" stop-color="#1b6d9b"/></linearGradient><path d="M196.7 188.5l-3.2 6.5-.9 1.8-10 .1 1.9-3.6 1.7-3.4.6-1.1.4-.8 9.4-.2c.3.1.3.3.1.7z" fill="url(#E)"/><linearGradient id="F" gradientUnits="userSpaceOnUse" x1="195.396" y1="204.226" x2="155.299" y2="284.42"><stop offset="0" stop-color="#59549b"/><stop offset="1" stop-color="#1b6d9b"/></linearGradient><path d="M201.7 203.5c0 .1 0 .1 0 0l-42.3 80.8c-.3.6-.9.9-1.5.9h-6.7c-.1 0-.2 0-.3-.1h-.2c-.2-.1-.3-.1-.4-.2-.1 0-.2-.1-.2-.1l-.2-.1c-.3-.2-.3-.7-.2-1l1.4-2.8 40.8-78.3H202c.1.2-.1.6-.3.9z" fill="url(#F)"/><linearGradient id="G" gradientUnits="userSpaceOnUse" x1="152.607" y1="274.532" x2="192.142" y2="206.041"><stop offset="0" stop-color="#488100"/><stop offset=".962" stop-color="#489300"/></linearGradient><path d="M191.9 202.6L151.1 281l40.8-78.4z" fill="url(#G)"/><linearGradient id="H" gradientUnits="userSpaceOnUse" x1="112.603" y1="130.96" x2="175.693" y2="250.971"><stop offset=".043" stop-color="#2c83be"/><stop offset=".989" stop-color="#0085cc"/></linearGradient><path d="M171.4 190.5l4.9 3 1.6-3 .9-1.8 1.9 1.1.6-1.1 1.3-2.4.1-.1.5-1 4.3 2.6-.4.8-.6 1.1-1.7 3.4-1.9 3.6 9.2 5.7-41 78.6-1.4 2.8c-.1.3-.1.8.2 1.1-1.1-.6-1.9-1.5-2.3-2.1v-.1c-.1-.1-.1-.2-.2-.2 0-.1-.1-.1-.1-.1L129.9 249 73.5 141.3s0-.1-.1-.1v-.1c-1.2-2.5 1.5-2.3 1.6-2.3h35l38.6 74.3 5.2-10 .8-1.5 8.4-16.1 8.4 5z" fill="url(#H)"/><linearGradient id="I" gradientUnits="userSpaceOnUse" x1="144.848" y1="241.663" x2="114.154" y2="182.865"><stop offset=".005" stop-opacity=".3"/><stop offset=".898" stop-opacity="0"/></linearGradient><path d="M148.7 213.1s-11.6 22.9-31.3 12l-43.9-83.8c-.6-1.2.2-2.5 1.5-2.5h35l38.7 74.3z" fill="url(#I)"/><linearGradient id="J" gradientUnits="userSpaceOnUse" x1="188.577" y1="150.583" x2="209.819" y2="150.583"><stop offset="0" stop-color="#1e72bf"/><stop offset="1" stop-color="#277dad"/></linearGradient><path d="M209.8 154.1l-10.4-.2-7.7-4.9-3.2-2c.1 0 .1-.1.2-.1l8.2.1h1.4l11.5 7.1z" fill="url(#J)"/><linearGradient id="K" gradientUnits="userSpaceOnUse" x1="192.333" y1="160.757" x2="209.84" y2="160.757"><stop offset="0" stop-color="#59549b"/><stop offset="1" stop-color="#1b6d9b"/></linearGradient><path d="M209.8 154.4l-4.2 8-.7 1.4-1.9 3.7h-10.6l.1-.2 6.9-13.3 10.4.2s.1.1 0 .2z" fill="url(#K)"/><linearGradient id="L" gradientUnits="userSpaceOnUse" x1="183.414" y1="157.298" x2="199.402" y2="157.298"><stop offset=".043" stop-color="#2c83be"/><stop offset=".989" stop-color="#0085cc"/></linearGradient><path d="M192.2 162l-1.9 4-.1.2 2.1 1.3.1-.2 6.9-13.3-1.5-1.1-9.3-5.8-.2.2-1 1.8-4 7.3c-.1.1 0 .3.1.4l8.8 5.2z" fill="url(#L)"/><linearGradient id="M" gradientUnits="userSpaceOnUse" x1="189.847" y1="197.529" x2="197.751" y2="204.311"><stop offset="0" stop-color="#1e72bf"/><stop offset="1" stop-color="#277dad"/></linearGradient><path d="M201.6 202.2L193 197l-.4-.2h-.3l-9.7.1 7.7 4.8 1.6 1H202c-.1-.3-.3-.5-.4-.5z" fill="url(#M)"/><linearGradient id="N" gradientUnits="userSpaceOnUse" x1="200.981" y1="180.94" x2="215.678" y2="180.94"><stop offset="0" stop-color="#59549b"/><stop offset="1" stop-color="#1b6d9b"/></linearGradient><path d="M215.5 176.4s0 .1 0 0l-5.1 9.8c-.1.2-.3.3-.4.3h-9l5.7-11h8.9c.1.2.1.5-.1.9z" fill="url(#N)"/><linearGradient id="O" gradientUnits="userSpaceOnUse" x1="191.285" y1="177.971" x2="206.708" y2="177.971"><stop offset=".043" stop-color="#2c83be"/><stop offset=".989" stop-color="#0085cc"/></linearGradient><use xlink:href="#i" fill="url(#O)"/><linearGradient id="P" gradientUnits="userSpaceOnUse" x1="197.085" y1="172.382" x2="215.584" y2="172.382"><stop offset="0" stop-color="#1e72bf"/><stop offset="1" stop-color="#277dad"/></linearGradient><use xlink:href="#j" fill="url(#P)"/><linearGradient id="Q" gradientUnits="userSpaceOnUse" x1="217.082" y1="150.384" x2="231.779" y2="150.384"><stop offset="0" stop-color="#59549b"/><stop offset="1" stop-color="#1b6d9b"/></linearGradient><path d="M231.6 145.8c0 .1 0 .1 0 0l-5.1 9.8c-.1.2-.3.3-.4.3h-9l5.7-11h8.9c.1.2.1.5-.1.9z" fill="url(#Q)"/><linearGradient id="R" gradientUnits="userSpaceOnUse" x1="191.286" y1="177.915" x2="206.709" y2="177.915"><stop offset=".043" stop-color="#2c83be"/><stop offset=".989" stop-color="#0085cc"/></linearGradient><use xlink:href="#i" x="16.1" y="-30.5" fill="url(#R)"/><linearGradient id="S" gradientUnits="userSpaceOnUse" x1="197.086" y1="172.325" x2="215.585" y2="172.325"><stop offset="0" stop-color="#1e72bf"/><stop offset="1" stop-color="#277dad"/></linearGradient><use xlink:href="#j" x="16.1" y="-30.5" fill="url(#S)"/><linearGradient id="T" gradientUnits="userSpaceOnUse" x1="178.06" y1="176.111" x2="192.757" y2="176.111"><stop offset="0" stop-color="#59549b"/><stop offset="1" stop-color="#1b6d9b"/></linearGradient><path d="M192.6 171.6l-5.1 9.8c-.1.2-.3.3-.4.3h-9l5.7-11h8.9c.1.1.1.5-.1.9z" fill="url(#T)"/><linearGradient id="U" gradientUnits="userSpaceOnUse" x1="191.264" y1="177.942" x2="206.688" y2="177.942"><stop offset=".043" stop-color="#2c83be"/><stop offset=".989" stop-color="#0085cc"/></linearGradient><use xlink:href="#i" x="-22.9" y="-4.8" fill="url(#U)"/><linearGradient id="V" gradientUnits="userSpaceOnUse" x1="197.065" y1="172.353" x2="215.563" y2="172.353"><stop offset="0" stop-color="#1e72bf"/><stop offset="1" stop-color="#277dad"/></linearGradient><use xlink:href="#j" x="-22.9" y="-4.8" fill="url(#V)"/><linearGradient id="W" gradientUnits="userSpaceOnUse" x1="221.031" y1="233.002" x2="323.147" y2="233.002"><stop offset=".043" stop-color="#2c83be"/><stop offset=".989" stop-color="#0085cc"/></linearGradient><path d="M294.5 259c-5 5.3-12.6 8-22.6 8-9.3 0-17-3.2-23.1-9.6-6-6.4-9.1-14.5-9.1-24.5s3-18.2 9.1-24.5 13.7-9.5 23.1-9.5c5.3 0 9.5.7 12.6 2.1s6.4 3.8 9.9 7.3l-48.6 27 7.4 14.3 66.4-36.9c-4.7-9.9-11-17.6-18.9-23s-17.4-8.1-28.6-8.1c-6.8 0-13.2 1.2-19.3 3.7-6.1 2.4-11.6 6-16.4 10.7-4.9 4.7-8.6 10.2-11.2 16.4s-3.9 13-3.9 20.5 1.3 14.3 4 20.6c2.7 6.2 6.4 11.7 11.1 16.3 4.8 4.6 10.2 8.2 16.4 10.7s12.7 3.8 19.4 3.8c9.2 0 17.6-2 25.2-6s13.6-9.4 18.1-16.3 7.1-14.7 7.8-23.4l-18.2-2.3c-2.1 9.8-5.6 17.4-10.6 22.7z" fill="url(#W)"/><linearGradient id="X" gradientUnits="userSpaceOnUse" x1="337.947" y1="232.002" x2="421.963" y2="232.002"><stop offset=".043" stop-color="#2c83be"/><stop offset=".989" stop-color="#0085cc"/></linearGradient><path d="M401.5 187.2c-6.4-3.6-13.6-5.4-21.5-5.4s-15.1 1.8-21.5 5.4-11.4 8.7-15.1 15.3c-3.6 6.6-5.5 14.1-5.5 22.4v57.3h18v-57.4c0-4.9 1.1-9.4 3.3-13.3s5.1-7 8.8-9.2 7.7-3.3 12-3.3 8.2 1.1 12 3.3 6.6 5.3 8.8 9.2 3.3 8.4 3.3 13.3v57.4h18v-57.3c0-8.3-1.8-15.8-5.5-22.4s-8.7-11.7-15.1-15.3z" fill="url(#X)"/><linearGradient id="Y" gradientUnits="userSpaceOnUse" x1="432.366" y1="211.5" x2="532.783" y2="211.5"><stop offset=".043" stop-color="#2c83be"/><stop offset=".989" stop-color="#0085cc"/></linearGradient><path d="M514.8 226.9c0 8.6-1.4 16-4.2 22.1s-6.6 10.6-11.4 13.6-10.1 4.4-16.1 4.4c-6.2 0-11.8-1.5-16.9-4.4s-9-7-11.8-12.2-4.2-11.1-4.2-17.7c0-5 .8-9.6 2.3-13.7s3.7-7.7 6.7-10.7 6.4-5.3 10.3-6.9 8.3-2.4 13.2-2.4c2.7 0 5.6.4 8.5 1.2s5.8 1.8 8.7 3.1 5.4 2.8 7.7 4.3v-18.8c-8.2-4.6-17.5-7-27.9-7-6.3 0-12.3 1.2-17.9 3.7s-10.7 5.9-15.1 10.4c-4.4 4.4-7.9 9.7-10.4 15.7s-3.8 12.4-3.8 19.1c0 9.7 2 18.6 6.1 26.9 4.1 8.2 9.9 14.8 17.7 19.6 7.7 4.8 16.7 7.2 27.1 7.2 7.1 0 13.7-1.3 19.8-3.8s11.4-6.3 15.9-11.2 7.9-10.7 10.4-17.3c2.4-6.6 3.6-13.9 3.6-21.8v-91.4h-18v88z" fill="url(#Y)"/><linearGradient id="Z" gradientUnits="userSpaceOnUse" x1="542.89" y1="233.002" x2="644.803" y2="233.002"><stop offset=".043" stop-color="#2c83be"/><stop offset=".989" stop-color="#0085cc"/></linearGradient><path d="M629.6 196c-4.8-4.6-10.2-8.1-16.3-10.5s-12.6-3.7-19.4-3.7-13.2 1.2-19.3 3.7c-6.1 2.4-11.6 6-16.4 10.7-4.9 4.7-8.6 10.2-11.2 16.4s-3.9 13-3.9 20.5 1.3 14.3 4 20.6c2.7 6.2 6.4 11.7 11.1 16.3 4.8 4.6 10.2 8.2 16.4 10.7s12.7 3.8 19.4 3.8a51.83 51.83 0 0 0 19.6-3.8c6.2-2.5 11.6-6 16.2-10.5s8.3-9.9 11-16.3 4.1-13.3 4.1-20.6-1.3-14.2-4-20.6c-2.8-6.6-6.6-12.1-11.3-16.7zm-12.7 61.4c-6 6.4-13.8 9.6-23.2 9.6-9.3 0-17-3.2-23.1-9.6-6-6.4-9.1-14.5-9.1-24.5s3-18.2 9.1-24.5c6-6.3 13.7-9.5 23.1-9.5s17.1 3.2 23.2 9.5 9.1 14.5 9.1 24.5-3 18.2-9.1 24.5z" fill="url(#Z)"/><linearGradient id="a" gradientUnits="userSpaceOnUse" x1="657.738" y1="210.5" x2="752.234" y2="210.5"><stop offset=".043" stop-color="#2c83be"/><stop offset=".989" stop-color="#0085cc"/></linearGradient><path d="M713.2 200.3c-12.8-6.2-21.7-10.9-26.4-14-4.5-3-6.7-7-6.7-12.4 0-5.2 1.5-9.1 4.3-11.9 2.9-2.7 6.9-4.1 12-4.1h49.4v-20.1h-46.6c-7.7 0-14.7 1.4-20.7 4.2-6.1 2.8-11 7.1-14.5 12.8-3.5 5.6-5.3 12.4-5.3 20.1 0 9.8 3.3 17.8 9.7 23.8 6.3 5.9 15.7 11.8 27.9 17.7 12.1 5.8 21 10.7 26.6 14.5 5.4 3.7 8 8.4 8 14.5 0 6-1.8 10.4-5.3 13.3-3.6 2.9-9.5 4.4-17.5 4.4h-50.2v20.1h53.6c8.5 0 15.9-1.6 21.9-4.9 6.1-3.3 10.9-7.9 14.1-13.9 3.2-5.9 4.8-12.9 4.8-20.6 0-10.1-3.3-18.5-9.9-24.8-6.5-6.2-16.3-12.5-29.2-18.7z" fill="url(#a)"/><linearGradient id="b" gradientUnits="userSpaceOnUse" x1="765.356" y1="232.002" x2="895.154" y2="232.002"><stop offset=".043" stop-color="#2c83be"/><stop offset=".989" stop-color="#0085cc"/></linearGradient><path d="M884.7 190.8c-3.2-3.1-7-5.6-11.4-7.4-4.3-1.8-9.2-2.7-14.4-2.7-6.1 0-11.7 1.2-16.8 3.6-4.7 2.2-8.7 5.4-11.9 9.6-3.1-4.1-7.1-7.3-11.8-9.5-5.2-2.4-10.8-3.7-16.7-3.7-6.7 0-12.9 1.6-18.4 4.6-5.5 3.1-9.9 7.3-13.1 12.7a33.2 33.2 0 0 0-4.8 17.3v67.8h20.1v-63.8c0-6.1 1.5-10.9 4.6-14.3s7-5.1 12-5.1c12.2 0 18.2 7.3 18.2 22.3v60.9h20.1v-60.9c0-15 6-22.3 18.3-22.3 5 0 8.9 1.7 12 5.1 3 3.4 4.6 8.2 4.6 14.3v63.8h20.1v-67.8c0-4.8-.9-9.4-2.8-13.6-2.1-4.1-4.6-7.8-7.9-10.9z" fill="url(#b)"/><linearGradient id="c" gradientUnits="userSpaceOnUse" x1="908.476" y1="233.002" x2="1010.973" y2="233.002"><stop offset=".043" stop-color="#2c83be"/><stop offset=".989" stop-color="#0085cc"/></linearGradient><path d="M997.3 193.8c-4.4-4.2-9.9-7.4-16.1-9.7-6.2-2.2-13.2-3.4-20.9-3.4-10.4 0-19.6 2.3-27.4 6.7-7.8 4.5-13.9 10.7-18.1 18.5s-6.3 16.5-6.3 26c0 7.2 1.2 14.1 3.6 20.5 2.4 6.5 5.9 12.3 10.4 17.2 4.5 5 9.9 8.8 16 11.5s12.7 4 19.6 4c5.8 0 10.9-.8 14.9-2.5 4-1.6 8.1-4 12.3-7.1l.4-.3v-24.8l-1.9 2.3c-6.9 8.7-15 13.1-24 13.1-5.8 0-11.2-1.5-16-4.4s-8.5-6.9-11.2-11.9c-2.6-5-4-10.4-4-16.2 0-6 1.3-11.6 3.8-16.7a29.46 29.46 0 0 1 11-12.2c4.7-3 10.3-4.5 16.5-4.5 5.6 0 10.7 1 15.4 3.1 4.6 2.1 8.4 5.1 11.3 9.2 2.8 4 4.3 8.9 4.3 14.5v56.4h20.1v-54.7c0-7.1-1.2-13.7-3.5-19.5s-5.8-10.9-10.2-15.1z" fill="url(#c)"/><linearGradient id="d" gradientUnits="userSpaceOnUse" x1="1026.298" y1="232.002" x2="1076.685" y2="232.002"><stop offset=".043" stop-color="#2c83be"/><stop offset=".989" stop-color="#0085cc"/></linearGradient><path d="M1055.4 184c-3.7 1.8-7 4.6-9.8 8.4v-9.5h-19.3v100.4h20.1v-47c0-24.4 8.7-36.2 26.7-36.2h3.6v-19.3h-5.1c-6.4 0-11.8 1-16.2 3.2z" fill="url(#d)"/><linearGradient id="e" gradientUnits="userSpaceOnUse" x1="1093.274" y1="220.751" x2="1148.562" y2="220.751"><stop offset=".043" stop-color="#2c83be"/><stop offset=".989" stop-color="#0085cc"/></linearGradient><path d="M1148.6 202.1v-19.3h-35.2v-24.6h-20.1v92.3c0 10 2.7 18 8 23.9s12.8 8.9 22.2 8.9h25.1V264h-22.7c-4.5 0-7.7-.9-9.6-2.5s-2.8-4.6-2.8-8.7v-50.6h35.1z" fill="url(#e)"/><linearGradient id="f" gradientUnits="userSpaceOnUse" x1="1164.515" y1="141.857" x2="1185.673" y2="141.857"><stop offset=".043" stop-color="#2c83be"/><stop offset=".989" stop-color="#0085cc"/></linearGradient><path d="M1172.7 133.4h-8.2V129h21.2v4.4h-8.2v21.3h-4.8v-21.3z" fill="url(#f)"/><linearGradient id="g" gradientUnits="userSpaceOnUse" x1="1188.647" y1="141.893" x2="1215.866" y2="141.893"><stop offset=".043" stop-color="#2c83be"/><stop offset=".989" stop-color="#0085cc"/></linearGradient><path d="M1211,136.1l-8.4,11.2h-1l-8.2-11.2v18.7h-4.8V129h5.6l8,11.1l8-11.1h5.5v25.7h-4.8V136.1z" fill="url(#g)"/><defs ><path id="i" d="M206.7 175.4l-5.7 11-9.5-5.8c-.2-.1-.3-.4-.2-.6l5.3-10.1c0-.1.2-.2.5-.4l9.6 5.9z"/><path id="j" d="M215.6 175.4h-8.9l-9.6-5.9c.2-.1.4-.1.6-.1h8.2a.9.9 0 0 1 .5.1l8.8 5.4.4.5z"/></defs></svg>